<svg data-name="Layer 1" xmlns="http://www.w3.org/2000/svg" xmlns:xlink="http://www.w3.org/1999/xlink" width="802.214" height="825.594"><defs><linearGradient id="b" x1="959.949" y1="607.435" x2="959.949" y2="587.435" gradientTransform="rotate(26.478 1554.221 -112.644)" gradientUnits="userSpaceOnUse"><stop offset="0" stop-color="#fff"/><stop offset="1"/></linearGradient><linearGradient id="a" x1="1312.885" y1="1202.234" x2="1312.885" y2="1014.234" gradientTransform="rotate(-5.049 -3261.237 7777.895)" gradientUnits="userSpaceOnUse"><stop offset="0" stop-color="gray" stop-opacity=".25"/><stop offset=".535" stop-color="gray" stop-opacity=".12"/><stop offset="1" stop-color="gray" stop-opacity=".1"/></linearGradient><linearGradient id="c" x1="1109.307" y1="1145.587" x2="1109.307" y2="787.491" gradientTransform="rotate(-5.049 -2739.84 5540.739)" xlink:href="#a"/></defs><path d="M593.59 383.919c14.355 1.44 28.754-1.836 42.606-5.87 27.464-8 55.961-20.707 70.198-45.518 5.2-9.061 8.152-19.207 11.057-29.242 5.866-20.258 11.772-40.75 12.716-61.819a133.986 133.986 0 00-14.58-66.88 14.412 14.412 0 00-7.402-6.903c-5.607-2.204-8.69.808-11.137 3.945-14.851 19.034-13.313 45.531-14.554 69.641a251.224 251.224 0 01-14.056 70.84c-3.428 9.68-7.946 19.753-16.65 25.2-5.332 3.336-11.676 4.559-17.857 5.72-9.244 1.736-19.335 3.355-27.622-1.093-8.486-4.554-14.099-16.354-23.891-18.316-9.689-1.94-22.91 8.21-27.236 16.761-11.714 23.162 19.19 41.604 38.408 43.534z" fill="#ffd180"/><g opacity=".1"><path d="M651.788 337.313c-5.332 3.336-11.676 4.559-17.857 5.72-6.35 1.192-13.087 2.28-19.377 1.434 7.898 3.293 17.148 1.851 25.69.247 6.182-1.16 12.526-2.384 17.858-5.72 8.704-5.447 13.222-15.52 16.65-25.2a251.196 251.196 0 0014.056-70.84c1.24-24.11-.297-50.606 14.554-69.64 1.72-2.205 3.774-4.308 6.776-4.622a12.894 12.894 0 00-1.953-1.005c-5.607-2.204-8.69.807-11.137 3.945-14.85 19.034-13.314 45.531-14.554 69.641a251.196 251.196 0 01-14.056 70.84c-3.428 9.68-7.946 19.753-16.65 25.2zM561.496 342.066c3.998-7.904 15.591-17.152 24.975-16.978a15.513 15.513 0 00-4.053-1.464c-9.689-1.94-22.91 8.21-27.236 16.761-10.926 21.604 15.224 39.096 34.387 42.918-18.003-5.923-37.834-21.936-28.073-41.237z"/></g><path opacity=".1" d="M472.649 172.265l166.686 83.027-24.035 48.251-166.685-83.026z"/><path fill="#feab36" d="M472.649 172.265l166.685 83.027-21.849 43.864L450.8 216.13z"/><circle cx="579.347" cy="199.863" r="29.403" fill="#feab36"/><path d="M557.011 46.543s50.908 13.801 69.444 34.59c0 0 30.031-25.488 43.92-18.57s-6.847 60.15-6.847 60.15L645.15 206.01s9.557 201.222-119.914 240.74-222.239-122.254-192.26-182.44S452.994 92.963 452.994 92.963 531.504 4.947 545.376.3s11.635 46.243 11.635 46.243z" fill="#ffd180"/><g opacity=".1" fill="#fff"><path d="M634.443 308.666A409.09 409.09 0 00645.15 206.01l-2.902 13.154a408.92 408.92 0 01-7.805 89.502zM347.482 255.972c29.979-60.185 102.61-149.856 102.61-149.856s78.51-88.015 92.382-92.662c13.87-4.647 11.635 46.243 11.635 46.243s50.908 13.801 69.444 34.59c0 0 30.032-25.488 43.92-18.57 5.391 2.685 5.557 12.352 3.752 23.171 4.017-15.137 6.697-32.566-.85-36.325-13.888-6.918-43.92 18.57-43.92 18.57-18.535-20.789-69.444-34.59-69.444-34.59S559.247-4.347 545.376.3c-13.871 4.647-92.381 92.663-92.381 92.663s-72.632 89.67-102.61 149.855c-2.709 5.437-3.763 14.88-2.903 13.154z"/></g><circle cx="606.933" cy="172.529" r="10.344" fill="#58555d"/><circle cx="500.452" cy="119.49" r="10.344" fill="#58555d"/><ellipse cx="750.288" cy="193.625" rx="10.344" ry="15.516" transform="rotate(-63.522 620.795 335.658)" fill="#58555d"/><path fill="#ffd180" d="M634.088 188.87l1.248-5.02 46.277 11.505-1.249 5.02zM624.814 207.36l1.356-4.99 50.898 13.84-1.357 4.99zM431.35 58.86l3.858-3.44 37.072 41.579-3.858 3.44zM406.368 75.483l2.983-4.225 55.573 39.237-2.983 4.225z"/><path d="M463.119 284.847s-2.678 86.04-47.913 70.952 6.223-70.073 6.223-70.073 5.326-21.287-4.43-27.498M502.864 302.525s-71.585 47.81-34.842 78.204 56.16-42.367 56.16-42.367 15.243-15.785 25.676-10.795" opacity=".1"/><path d="M460.304 281.006s-2.678 86.04-47.913 70.952 6.223-70.073 6.223-70.073 5.326-21.288-4.43-27.499M507.254 301.045s-71.584 47.81-34.842 78.204 56.161-42.366 56.161-42.366 15.243-15.786 25.676-10.795" fill="#ffd180"/><path fill="#58555d" opacity=".5" d="M399.243 344.367l6.804-13.66.731.365-6.804 13.66zM410.94 350.194l6.804-13.66.73.364-6.803 13.66zM404.043 348.133l9.523-19.12.731.365-9.523 19.12zM476.731 379.314l6.804-13.66.731.365-6.803 13.66zM488.43 385.141l6.803-13.66.731.365-6.804 13.66zM481.531 383.081l9.524-19.119.731.364-9.523 19.12z"/><path d="M510.36 209.906a236.608 236.608 0 01-34.63-21.105c-34.404-25.291-52.925-54.899-53.587-55.984l5.335-6.677c.155.254 20.81 31.408 53.916 55.654 30.473 22.317 88.655 49.154 162.94 46.037l.377 8.992c-53.915 2.262-102.778-11.19-134.352-26.917z" opacity=".1"/><path d="M509.555 215.656l-.159-.474a5.418 5.418 0 003.865-7.714l.454-.21a5.912 5.912 0 01-4.16 8.398z" fill="#4d8af0"/><path d="M509.555 215.656l-.159-.474a5.418 5.418 0 003.865-7.714l.454-.21a5.912 5.912 0 01-4.16 8.398z" opacity=".1"/><path d="M645.226 226.041c-74.285 3.116-132.467-23.72-162.94-46.037-33.107-24.246-53.761-55.4-53.916-55.654l-7.683 4.688c.662 1.086 21.53 32.681 55.934 57.973a236.608 236.608 0 0034.63 21.104c31.573 15.727 80.437 29.18 134.352 26.918zm-132.184-17.783a1 1 0 111.341-.449 1 1 0 01-1.34.45z" fill="#f55f44"/><path d="M696.742 253.534a10 10 0 004.492 13.41 10 10 0 0013.41-4.493 10 10 0 00-4.492-13.41 10 10 0 00-13.41 4.493zm11.18-.017a1.667 1.667 0 112.235-.749 1.667 1.667 0 01-2.235.749z" transform="translate(-198.893 -37.203)" opacity=".1" fill="url(#b)"/><path d="M498.744 216.777a9 9 0 004.044 12.069 9 9 0 0012.068-4.044 9 9 0 00-4.043-12.068 9 9 0 00-12.069 4.043zm10.063-.015a1.5 1.5 0 112.011-.674 1.5 1.5 0 01-2.011.674z" fill="#4d8af0"/><path d="M509.238 215.498a5.912 5.912 0 014.197-8.38l.106.49a5.418 5.418 0 00-3.829 7.732zM513.488 207.363" fill="#4d8af0"/><path d="M632.023 222.836c-159.34 11.124-196.913-91.38-196.913-91.38z" fill="#ffd180"/><path d="M216.256 578.336h-20.879v176.521s134.764 43.656 265.732 0V578.336z" fill="#3f3d56"/><ellipse cx="326.345" cy="579.285" rx="130.968" ry="19.93" fill="#3f3d56"/><ellipse cx="326.345" cy="579.285" rx="130.968" ry="19.93" opacity=".1"/><path d="M478.586 367.432c-33.038 122.132-146.204 197.77-146.204 197.77s-59.599-122.374-26.56-244.506 146.204-197.77 146.204-197.77 59.6 122.375 26.56 244.506z" fill="#3f3d56"/><path d="M178.025 367.432c33.039 122.132 146.204 197.77 146.204 197.77s59.6-122.374 26.56-244.506-146.204-197.77-146.204-197.77-59.599 122.375-26.56 244.506z" fill="#feab36"/><path d="M226.573 341.185c90.66 88.253 101.733 223.918 101.733 223.918s-135.914-7.42-226.574-95.674S0 245.511 0 245.511s135.914 7.42 226.573 95.674zM430.038 341.185c-90.659 88.253-101.732 223.918-101.732 223.918s135.914-7.42 226.573-95.674S656.61 245.511 656.61 245.511s-135.914 7.42-226.573 95.674z" fill="#3f3d56"/><circle cx="328.243" cy="122.796" r="41.758" fill="#feab36"/><circle cx="708.209" cy="731.589" r="94" fill="url(#a)" opacity=".5"/><circle cx="708.209" cy="731.589" r="88" fill="#f55f44"/><path d="M651.774 828.847c-13.288 1.174-27.9-5.427-30.768-18.597-1.657-7.607.965-15.045 3.5-22.236 2.78-7.883 5.18-14.69 1.71-20.297-1.579-2.552-4.34-4.488-7.087-6.198-3.58-2.228-7.422-4.285-11.137-6.275-6.42-3.438-13.06-6.994-18.96-11.708-11.6-9.268-17.465-21.63-15.691-33.068 1.532-9.884 8.215-17.456 14.678-24.779 6.628-7.51 12.889-14.603 12.742-23.286-.198-11.808-12.268-20.288-22.918-27.768l-1.661-1.17c-12.995-9.166-25.477-25.073-17.888-39.737 2.649-5.12 7.07-8.405 11.345-11.583a41.993 41.993 0 007.823-6.839c7.813-9.677 3.826-24.01 1.75-29.724-1.58-4.343-3.644-8.677-5.64-12.867-2.95-6.19-5.999-12.591-7.77-19.497l-.29-1.133c-4.268-16.62-4.264-17.241.247-33.19l.562-1.99 6.737 1.9-.563 1.996c-4.083 14.434-4.083 14.434-.203 29.544l.29 1.134c1.603 6.248 4.375 12.065 7.309 18.225 2.067 4.34 4.205 8.828 5.899 13.487 5.248 14.436 4.198 27.745-2.882 36.512a47.814 47.814 0 01-9.094 8.06c-3.804 2.828-7.397 5.499-9.303 9.182-5.903 11.404 7.095 24.726 15.706 30.8l1.65 1.162c11.421 8.023 25.635 18.008 25.893 33.378.192 11.397-7.273 19.856-14.493 28.036-6.063 6.87-11.79 13.36-13.01 21.22-1.629 10.512 5.722 20.595 13.144 26.526 5.4 4.315 11.47 7.565 17.896 11.006 3.814 2.043 7.758 4.155 11.532 6.504 3.47 2.16 7.003 4.68 9.34 8.458 5.233 8.455 2.033 17.53-1.06 26.306-2.313 6.56-4.497 12.754-3.264 18.419 2.23 10.236 15.656 14.893 26.31 12.674 8.718-1.817 16.39-6.606 24.514-11.674 2.627-1.64 5.344-3.335 8.08-4.908 14.933-8.577 28.463-10.672 39.131-6.063a51.7 51.7 0 019.482 5.787 52.209 52.209 0 007.274 4.636 25.156 25.156 0 0032.249-11.2c.513-1.068.975-2.216 1.465-3.43 1.553-3.858 3.315-8.23 7.336-10.973 4.21-2.871 9.398-2.828 13.187-2.796l39.136.331-.06 7-39.135-.332c-3.713-.031-6.964.067-9.184 1.58-2.266 1.545-3.49 4.586-4.787 7.805-.51 1.264-1.037 2.573-1.649 3.846a32.137 32.137 0 01-41.63 14.46 58.217 58.217 0 01-8.274-5.234 45.742 45.742 0 00-8.188-5.054c-10.814-4.677-23.842.523-32.866 5.707-2.626 1.509-5.287 3.17-7.862 4.776-8.285 5.171-16.853 10.517-26.792 12.588a32.84 32.84 0 01-3.808.561z" transform="translate(-198.893 -37.203)" fill="url(#c)" opacity=".5"/><path d="M454.61 788.48c-13.289 1.174-27.9-5.427-30.769-18.597-1.657-7.607.965-15.045 3.5-22.236 2.78-7.883 5.18-14.69 1.711-20.297-1.58-2.552-4.34-4.488-7.087-6.198-3.58-2.228-7.422-4.285-11.138-6.275-6.42-3.438-13.06-6.994-18.96-11.709-11.599-9.267-17.464-21.629-15.691-33.067 1.532-9.885 8.215-17.456 14.679-24.779 6.628-7.51 12.888-14.603 12.742-23.286-.198-11.808-12.269-20.288-22.918-27.768l-1.662-1.17c-12.994-9.166-25.476-25.073-17.888-39.738 2.65-5.119 7.07-8.404 11.345-11.582a41.993 41.993 0 007.824-6.839c7.813-9.677 3.825-24.01 1.749-29.724-1.58-4.343-3.644-8.677-5.64-12.867-2.95-6.19-5.998-12.592-7.77-19.497l-.29-1.133c-4.268-16.62-4.263-17.241.247-33.19l.563-1.99 6.737 1.9-.564 1.996c-4.082 14.434-4.082 14.434-.203 29.544l.291 1.134c1.603 6.248 4.374 12.065 7.308 18.225 2.067 4.34 4.206 8.828 5.9 13.487 5.247 14.436 4.197 27.745-2.882 36.512a47.813 47.813 0 01-9.095 8.06c-3.804 2.828-7.397 5.499-9.303 9.182-5.902 11.404 7.096 24.726 15.706 30.8l1.65 1.162c11.422 8.023 25.636 18.008 25.894 33.378.192 11.397-7.274 19.856-14.494 28.035-6.063 6.871-11.79 13.36-13.009 21.22-1.63 10.513 5.721 20.596 13.143 26.527 5.401 4.315 11.47 7.565 17.896 11.006 3.814 2.042 7.758 4.155 11.532 6.504 3.47 2.16 7.003 4.68 9.341 8.458 5.232 8.455 2.033 17.53-1.061 26.306-2.313 6.56-4.497 12.754-3.263 18.419 2.23 10.236 15.656 14.893 26.31 12.674 8.717-1.817 16.39-6.606 24.513-11.674 2.627-1.64 5.344-3.335 8.08-4.908 14.933-8.577 28.464-10.672 39.131-6.063a51.7 51.7 0 019.483 5.787 52.207 52.207 0 007.274 4.636 25.156 25.156 0 0032.248-11.2c.513-1.068.976-2.216 1.465-3.43 1.554-3.858 3.315-8.23 7.336-10.973 4.211-2.871 9.399-2.828 13.188-2.796l39.136.331-.06 7-39.135-.332c-3.713-.031-6.965.067-9.185 1.58-2.265 1.545-3.49 4.585-4.787 7.805-.51 1.264-1.036 2.573-1.648 3.846a32.137 32.137 0 01-41.63 14.46 58.216 58.216 0 01-8.275-5.234 45.742 45.742 0 00-8.188-5.054c-10.814-4.677-23.842.523-32.865 5.707-2.626 1.508-5.288 3.17-7.862 4.776-8.286 5.17-16.853 10.517-26.792 12.588a32.844 32.844 0 01-3.809.56z" fill="#f55f44"/><path d="M717.782 669.505s49.06 4.2 56.392 75.832M640.138 762.198s-23.21-58.184 52.58-98.008M658.917 747.488s-10.697-30.176 12.71-49.31M703.502 695.362s20.335 14.266 13.894 54.991M741.087 654.898s33.46 15.114 46.27 69.197M692.277 659.21s19.395-7.737 33.312 2.076M678.227 772.887s18.782 19.423 85.666-7.568M655.861 667.446s-25.311 20.307-24.956 58.423M653.088 761.054s-4.92 12.481 8 22.382M771.658 773.668s-6.853 24.7-21.063 22.943M729.725 708.104s10.022 11.161 5.277 25.635M680.007 713.5s-7.557 16.73-1.432 29.24M690.965 712.532s8.645 18.31 2.552 28.888" fill="none" stroke="#000" stroke-miterlimit="10" opacity=".2"/></svg>